<svg id="Capa_1" data-name="Capa 1" xmlns="http://www.w3.org/2000/svg" viewBox="0 0 255.3 263.3"><defs><style>.cls-1{fill:#f0a800;}.cls-2{fill:#1e3532;}</style></defs><circle class="cls-1" cx="148.4" cy="161.3" r="35.5"/><path class="cls-2" d="M83.1,99.1c-.1-2.2,0-4.3,1.9-5.5a6.8,6.8,0,0,1,3.1-1.1,4,4,0,0,1,4,2A26.5,26.5,0,0,1,93.5,99h6.2c0-2.1,0-4.2,2-5.5a6,6,0,0,1,3.2-1,4,4,0,0,1,3.9,2.1,25.4,25.4,0,0,1,1.3,4.4h6.3c-.1-2.1,0-4.2,1.8-5.4a7.2,7.2,0,0,1,3.2-1.1,3.8,3.8,0,0,1,4,2,26.5,26.5,0,0,1,1.4,4.5H133c-.1-2.1.1-4.2,1.9-5.4a6.2,6.2,0,0,1,3.2-1.1,3.8,3.8,0,0,1,3.9,2,26.5,26.5,0,0,1,1.4,4.5h6.3c-.1-2.2,0-4.3,1.9-5.6a6,6,0,0,1,3.2-1,3.9,3.9,0,0,1,3.9,2.1,23.9,23.9,0,0,1,1.4,4.5h2.5c5.2,0,8.7,3.5,8.7,8.7v75.8c0,5.2-3.5,8.7-8.6,8.7H80.2c-5.2,0-8.8-3.5-8.8-8.7V107.7c0-5.1,3.6-8.6,8.7-8.6Zm-8.3,16.7v67.5c0,3.7,1.9,5.7,5.6,5.7h81.9q5.7,0,5.7-5.7V115.8Zm35.1-13.3c-.7,4.7-2,6.5-5,6.5a6,6,0,0,1-3.1-1c-2-1.2-2.2-3.4-2.1-5.5H93.1v1.4a5,5,0,0,1-5,5.1,4.9,4.9,0,0,1-5-5v-1.5a29.4,29.4,0,0,0-4.2,0,4.4,4.4,0,0,0-3.9,3.6,42.8,42.8,0,0,0,0,6.2h92.9c0-1.9.1-3.8,0-5.6a4.2,4.2,0,0,0-1.7-3.1c-1.9-1.7-4.2-1.1-6.5-1.1v1.7a5.1,5.1,0,0,1-5.1,4.9,5,5,0,0,1-4.9-5v-1.7h-6.6c-.5,4.7-1.8,6.5-4.8,6.6a6,6,0,0,1-3.2-1c-2-1.2-2.2-3.3-2.1-5.5h-6.5c-.6,4.7-1.9,6.5-4.9,6.5a6,6,0,0,1-3.2-1c-1.9-1.2-2.1-3.4-2.1-5.5Zm-20.2-1.8h0c0-1,.1-2.1,0-3.2a1.6,1.6,0,0,0-1.6-1.7,1.6,1.6,0,0,0-1.7,1.7V104a1.6,1.6,0,0,0,1.7,1.7,1.6,1.6,0,0,0,1.6-1.7Zm50,0V97.5a1.6,1.6,0,0,0-1.7-1.7,1.6,1.6,0,0,0-1.6,1.7c-.1,2.1-.1,4.3,0,6.4a1.7,1.7,0,0,0,1.7,1.8c.9,0,1.5-.7,1.6-1.8Zm-33.3,0h0V97.9c0-1.4-.6-2.1-1.7-2.1s-1.6.7-1.6,2.1v5.6c0,1.5.6,2.2,1.7,2.2s1.6-.7,1.6-2.1Zm46.6,0v3.2c.1,1.1.7,1.8,1.7,1.8a1.6,1.6,0,0,0,1.6-1.8c.1-2.1.1-4.2,0-6.4a1.5,1.5,0,0,0-1.7-1.7,1.7,1.7,0,0,0-1.6,1.7Zm-33.3-.1h0V104a1.8,1.8,0,0,0,1.7,1.7A1.6,1.6,0,0,0,123,104c.1-2.2.1-4.4,0-6.5a1.6,1.6,0,0,0-1.6-1.7,1.7,1.7,0,0,0-1.7,1.7Z"/><path class="cls-2" d="M142.2,174.3l1.9,1.7a1.7,1.7,0,0,1,0,2.5,1.7,1.7,0,0,1-2.4-.1l-4.8-4.8a1.6,1.6,0,0,1,0-2.5l4.8-4.7a1.6,1.6,0,0,1,2.4-.2,1.7,1.7,0,0,1-.1,2.5,13.7,13.7,0,0,0-1.7,1.7,14.9,14.9,0,0,0,6-1.1,18.3,18.3,0,0,0,.6-33.7,18.3,18.3,0,0,0-25.8,15.8c-.2,4.6-1.1,9-3.7,12.9a21.6,21.6,0,1,1-19.6-33.5h.6l.2-.3-1.8-1.6a1.7,1.7,0,1,1,2.4-2.4l4.6,4.7a1.6,1.6,0,0,1,0,2.5l-4.7,4.8a1.8,1.8,0,0,1-2.6.1,1.8,1.8,0,0,1,.2-2.5l1.8-1.5-.2-.4a16,16,0,0,0-2.3.3,18.3,18.3,0,1,0,21.6,18.9c.2-4.9,1.1-9.4,4-13.4,5.1-6.8,11.9-10,20.4-9s14.6,5.9,17.7,14.1a21.7,21.7,0,0,1-18.1,28.9h-1.2Z"/></svg>