<svg id="Capa_1" data-name="Capa 1" xmlns="http://www.w3.org/2000/svg" viewBox="0 0 255.3 263.3"><defs><style>.cls-1{fill:#f0a800;}.cls-2{fill:#1e3532;}</style></defs><circle class="cls-1" cx="127.5" cy="162.7" r="38.5"/><path class="cls-2" d="M149,180.2h26.9c1.9,0,2.2-.3,2.2-2.2V123.6c0-1.9-.3-2.1-2.2-2.1H103.3a1.5,1.5,0,0,1-1.5-1.6,1.6,1.6,0,0,1,1.6-1.5h21.9c1.1,0,1.5-.3,1.4-1.3a19.2,19.2,0,0,1,0-2.4c-.1-2.7-1.6-4.2-4.3-4.2H81.9c-3.2,0-4.6,1.4-4.6,4.7v32a1.5,1.5,0,0,1-1.6,1.3c-.5-.1-1.1-.8-1.5-1.3s0-.7,0-1.1V114.9c0-4.9,2.8-7.7,7.7-7.7h3V89.3c0-3.7,2.1-5.8,5.8-5.8h73.9c3.8,0,5.8,2,5.8,5.7v17.1c0,.4.1.9-.1,1.2s-1,1.1-1.4,1.1a2.9,2.9,0,0,1-1.5-1.2c-.2-.3-.1-.8-.1-1.2V89.4c0-2.1-.7-2.8-2.8-2.8H90.9c-2.2,0-2.8.7-2.8,2.9v17.7h34.1a7.5,7.5,0,0,1,4.6,1.3,7.1,7.1,0,0,1,3,5.8v4H166c1,0,1.4-.2,1.3-1.3s0-2,0-3,.5-2.2,1.6-2.2,1.5.8,1.5,2.3v4.2h6.3a4.4,4.4,0,0,1,4.5,4.6v55.4c0,3.5-1.6,5.1-5.1,5.1H147.3a3.4,3.4,0,0,0-2.3.8,27.1,27.1,0,0,1-34.8-.1,3.5,3.5,0,0,0-2-.7H78.3a4.3,4.3,0,0,1-4.1-4.3V153.5c0-1.2.6-1.9,1.5-1.9s1.6.7,1.6,2v24.6c0,1.8.3,2.1,2.1,2.1h26.9a28.2,28.2,0,0,1-5.9-15.9,27.7,27.7,0,0,1,4.5-16.2l-2.7-2.5-.8.7a1.5,1.5,0,0,1-2.3,0,1.5,1.5,0,0,1,.2-2.2l8.1-8.2,1.2-1.2a1.6,1.6,0,0,1,2.3,0,1.5,1.5,0,0,1,0,2.2l-.9,1,2.5,2.3,6.8-3,.4-.2c2.9-.9,2.9-.9,2.4-4.2H121a1.4,1.4,0,0,1-1.6-1.5,1.6,1.6,0,0,1,1.7-1.6h13c1.2,0,1.9.6,1.9,1.6a1.6,1.6,0,0,1-1.8,1.5h-1.1v3.1c0,.2.4.5.6.6a45,45,0,0,1,4.8,1.6c1.4.6,2.9,1.4,4.4,2.2l2.4-2.5-.9-1a1.3,1.3,0,0,1,0-2,1.5,1.5,0,0,1,2.2-.2l1.6,1.6,7.5,7.5c1.1,1.1,1.2,1.9.5,2.7s-1.6.6-2.7-.5l-.7-.6a15.7,15.7,0,0,0-2,2.5c-.2.2-.1.8.1,1.1a27,27,0,0,1,4,14.4,27.2,27.2,0,0,1-5.3,16.1Zm2.8-17a24.1,24.1,0,1,0-24.1,24.2A24.2,24.2,0,0,0,151.8,163.2Zm-1.3-19.9-2.7-2.9-2.1,1.7,2.8,3.2Zm-43.8,2,3.1-3-1.9-1.9-3.3,2.9Zm23.2-9.5v-2.4c0-.2-.3-.6-.4-.6h-3.8c-.1.9-.1,1.9-.2,2.8a.3.3,0,0,1,.1.2Z"/><path class="cls-2" d="M127.3,95.1H96.5c-.4,0-.9.1-1.1-.1s-1.1-.9-1.1-1.4.6-1.1,1.1-1.5.9-.1,1.4-.1h62.3a1.5,1.5,0,0,1,1.3,1.6,1.4,1.4,0,0,1-1.3,1.5H127.3Z"/><path class="cls-2" d="M127.3,102.9H96.8c-1.8,0-2.5-.5-2.6-1.6s.8-1.6,2.6-1.6h62.3a1.5,1.5,0,0,1,1.3,1.6c.1.8-.4,1.3-1.2,1.5H127.3Z"/><path class="cls-2" d="M148.8,107.4h10.3a1.3,1.3,0,0,1,1.3,1.5,1.5,1.5,0,0,1-1.3,1.6H139.4c-.5,0-1,.1-1.3-.1s-1.1-1-1.1-1.5.6-1.1,1.1-1.4a2.3,2.3,0,0,1,1.2-.2Z"/><path class="cls-2" d="M148.5,163.2a20.9,20.9,0,1,1-20.8-20.9A20.9,20.9,0,0,1,148.5,163.2Zm-19.2-17.7c-.1,1.3.1,2.9-1.6,2.9s-1.5-1.6-1.7-2.9a16.9,16.9,0,0,0-9.6,4c.7,1,2.2,1.9.9,3.2s-2.2-.1-3.2-.9a17.4,17.4,0,0,0-4,9.7c1.3.1,2.8-.1,2.9,1.6s-1.6,1.5-2.9,1.7a18.1,18.1,0,0,0,3.9,9.7c1.9-1.5,2.6-1.7,3.3-1s-.2,2.3-.9,3.3a17.9,17.9,0,0,0,9.6,4c.2-1.2-.2-2.8,1.6-2.9s1.5,1.8,1.8,2.9a16.6,16.6,0,0,0,9.5-4c-1.4-1.8-1.6-2.5-.9-3.2s2.3.1,3.3.9a17.4,17.4,0,0,0,4-9.7c-1.4-.1-2.9.1-2.9-1.6s1.6-1.6,2.9-1.7a17.9,17.9,0,0,0-4-9.7c-1.7,1.5-2.4,1.7-3.1,1s.1-2.3.7-3.3A16.9,16.9,0,0,0,129.3,145.5Z"/><path class="cls-2" d="M127.4,167.4a4.1,4.1,0,0,1-3.6-2.4,4,4,0,0,1,.5-4.4,3.9,3.9,0,0,1,4.3-1.6,1.5,1.5,0,0,0,1.8-.5l3.4-3.4c.9-.8,1.9-.9,2.5-.2a1.6,1.6,0,0,1-.2,2.4l-3.7,3.6a1.8,1.8,0,0,0-.5,1.7A4.3,4.3,0,0,1,127.4,167.4Zm.3-2.7c.5-.7,1-1.1,1-1.5s-.7-.8-1-1.1-1,.7-1,1.1S127.2,164,127.7,164.7Z"/></svg>