<svg id="Capa_1" data-name="Capa 1" xmlns="http://www.w3.org/2000/svg" viewBox="0 0 255.3 263.3"><defs><style>.cls-1{fill:#f0a800;}.cls-2{fill:#1e3532;}</style></defs><circle class="cls-1" cx="96.8" cy="113.5" r="34.8"/><path class="cls-2" d="M153.4,161.8c-.5,4.1-2.8,6.4-6.4,6.8-.9,1.8-1.4,3.5-2.6,4.7s-2.5,1.3-3.8,2a1.9,1.9,0,0,0-1,1c-.6,2.8-2,4.8-4.8,5.6a6.4,6.4,0,0,1-7-2l-4.5-4.5-3.1,3.4a6.6,6.6,0,0,1-7.2,1.9,6.9,6.9,0,0,1-4.6-5.9,4.3,4.3,0,0,1-.1-.5c-4-.4-6.2-2.6-6.7-6.7-4-.4-6.2-2.7-6.7-6.7-5.9-.5-9.2-7-4.2-12.1l-1.5-1.9c-1.5-2-1.6-4.4-1.5-6.8a3.7,3.7,0,0,0-1.4-3.5c-2-1.9-3.8-3.9-5.8-5.8a2.6,2.6,0,0,0-1.7-.7,5.5,5.5,0,0,1-4.1-1.5l-9.4-9.4c-1.1-1.1-1.2-2.1-.4-3s2-.7,3,.3l8.8,8.7c1.5,1.5,1.9,1.5,3.4,0l2.4-2.3a1.7,1.7,0,0,1,2.6,0,1.7,1.7,0,0,1,0,2.7l-2.3,2.1,7.4,7.4a3.7,3.7,0,0,1,1.3,3.1c-.1,1.2,0,2.4,0,3.6a5.7,5.7,0,0,0,2,4.3,6.9,6.9,0,0,1,6.7-2.5,6.5,6.5,0,0,1,5.2,4.5c5.5-2,10.8,2.3,9.2,8.5,3.2,1.5,4.1,2.5,5,5.9l2.5.4a6.6,6.6,0,0,1,4.3,8.8,1.6,1.6,0,0,0,.4,2l3.8,3.7a3,3,0,0,0,4.3.2,2.9,2.9,0,0,0-.1-4.3l-6.8-6.8c-1.2-1.2-1.3-2.3-.5-3.2s2-.7,3.1.5l6.7,6.6c1.4,1.4,3.2,1.6,4.4.4s1.2-3-.3-4.6l-6.8-6.8c-1.2-1.2-1-3,.5-3.3a3,3,0,0,1,2.2.8c2.4,2.2,4.6,4.6,7,6.8a2.9,2.9,0,0,0,5.1-1.1,3.3,3.3,0,0,0-1-3.1l-6.8-6.8a3.4,3.4,0,0,1-.8-2.3c.3-1.4,2.1-1.7,3.3-.5s4.7,4.7,7.1,7.1a3,3,0,0,0,5.1-1.5,3.2,3.2,0,0,0-1.3-3l-12.1-12.1c-1.6-1.6-1.8-2.6-.8-3.5s2-.6,3.6.9L158.9,151a8.7,8.7,0,0,1,.8-1.4l8.9-8.9a2,2,0,0,1,3-.3c.8.9.7,1.8-.4,3-3.4,3.4-6.8,6.7-10.1,10.2a2.8,2.8,0,0,0-.9,1.9C159.8,158.9,157.5,161,153.4,161.8Zm-52,2.2a10.4,10.4,0,0,0,2.1-1l6.9-6.9a2.8,2.8,0,0,0-.1-3.8,2.7,2.7,0,0,0-3.7-.3q-3.7,3.5-7.2,7.2a2.2,2.2,0,0,0-.3,2.9A10.6,10.6,0,0,0,101.4,164Zm13.4,13.5a5.5,5.5,0,0,0,2-.8,76.6,76.6,0,0,0,5.7-5.7,2.6,2.6,0,0,0-.3-3.7,2.7,2.7,0,0,0-3.6-.4c-2.1,1.9-4,3.9-5.9,5.9a2.1,2.1,0,0,0-.1,2.8A13,13,0,0,0,114.8,177.5Zm-6.8-6.9a8.5,8.5,0,0,0,1.9-.6c1.8-1.8,3.6-3.5,5.3-5.4a2.6,2.6,0,0,0-.3-3.5,2.8,2.8,0,0,0-3.7-.3,62.6,62.6,0,0,0-5.1,5.2,2.2,2.2,0,0,0-.2,2.9A15.7,15.7,0,0,0,108,170.6ZM99.4,147a8.8,8.8,0,0,0-2,.7c-1.7,1.6-3.3,3.2-4.8,4.9a2.5,2.5,0,0,0,.4,3.6,2.6,2.6,0,0,0,3.5.2,35.5,35.5,0,0,0,4.7-4.8,3.2,3.2,0,0,0,.3-2.7C101.1,148.1,100,147.6,99.4,147Z"/><path class="cls-2" d="M147.7,116.2l6.6-6.9c-1.6-2.3-.3-4.3,1.6-6.2l13.1-13c.3-.3.6-.8.9-.8a4.8,4.8,0,0,1,2.4.1,1.7,1.7,0,0,1,.2,2.5l-1,1-13,13-1.1,1.3,25.4,24.2,6.1-6.2,1-1a1.9,1.9,0,0,1,2.7,0,1.7,1.7,0,0,1,0,2.7l-3,3-3.9,3.9a4.1,4.1,0,0,1-4.6.9,2.2,2.2,0,0,0-1.4.3,14.5,14.5,0,0,0-1.8,1.7q-2,2-3.3.6c-.9-1-.8-1.9.7-3.3a27.6,27.6,0,0,1,2.5-2.1L156.9,112l-6.6,6.9c-1.5,1.6-2.6,1.9-4.4.6a21.3,21.3,0,0,0-14.9-3.8c-3.5.3-7.1,0-10.6.1a4.2,4.2,0,0,0-2.4.9c-2.2,2.1-4.4,4.3-6.5,6.5a3.7,3.7,0,0,0-1.1,4,3.4,3.4,0,0,0,3.2,2.5,5.4,5.4,0,0,0,3-1c1.9-1.3,3.5-2.9,5.3-4.2a3.6,3.6,0,0,1,2.2-.9h8.2c1.8,0,2.3.6,2.3,2.4a2,2,0,0,0,.6,1.2c1.1,1.3,2.4,2.5,3.6,3.7s1.1,2.1.3,2.9a1.9,1.9,0,0,1-2.9-.2l-5.5-5.4a3.7,3.7,0,0,0-1.9-.8,8.7,8.7,0,0,0-8.1,2.9c-1.8,1.8-3.9,3.4-6.8,3.3a7.4,7.4,0,0,1-6.6-4.3,6.5,6.5,0,0,1,.5-7.4,46.8,46.8,0,0,1,4.3-4.6l4.2-4.2a17.3,17.3,0,0,0-2.1-1.3l-2.9-1.3c-2.6-.8-5.1-1.9-6.7-4.4l-13,13-.9.9a1.9,1.9,0,0,1-2.5-.2,1.6,1.6,0,0,1-.1-2.4l.9-1.1,14-13.9c1.4-1.5,1.4-1.9,0-3.3l-6.8-6.8c-.8-.8-1.1-1.8-.3-2.6A4.4,4.4,0,0,1,98,89c.3,0,.7.5,1,.8,2.4,2.3,4.7,4.6,7,7a5.2,5.2,0,0,1,1.5,5.9,1.5,1.5,0,0,0,.2,1.3,13.6,13.6,0,0,0,3.5,2.4c3.2,1.3,6.5,2.4,8.8,5.2a2.2,2.2,0,0,0,1.4.3h16a9.2,9.2,0,0,1,4.9,1.3C144,114.3,145.8,115.2,147.7,116.2Z"/></svg>